<svg xmlns="http://www.w3.org/2000/svg" width="224.88" viewBox="0 0 224.88 225" height="225" version="1.0"><defs><clipPath id="a"><path d="M 39 134 L 89 134 L 89 184 L 39 184 Z M 39 134"/></clipPath><clipPath id="b"><path d="M 78.394531 244.695312 L -6.308594 85.980469 L 118.019531 19.628906 L 202.722656 178.34375 Z M 78.394531 244.695312"/></clipPath><clipPath id="c"><path d="M 78.394531 244.695312 L -6.308594 85.980469 L 118.019531 19.628906 L 202.722656 178.34375 Z M 78.394531 244.695312"/></clipPath><clipPath id="d"><path d="M 84 79 L 121 79 L 121 176 L 84 176 Z M 84 79"/></clipPath><clipPath id="e"><path d="M 78.394531 244.695312 L -6.308594 85.980469 L 118.019531 19.628906 L 202.722656 178.34375 Z M 78.394531 244.695312"/></clipPath><clipPath id="f"><path d="M 78.394531 244.695312 L -6.308594 85.980469 L 118.019531 19.628906 L 202.722656 178.34375 Z M 78.394531 244.695312"/></clipPath><clipPath id="g"><path d="M 94 25 L 193 25 L 193 194 L 94 194 Z M 94 25"/></clipPath><clipPath id="h"><path d="M 78.394531 244.695312 L -6.308594 85.980469 L 118.019531 19.628906 L 202.722656 178.34375 Z M 78.394531 244.695312"/></clipPath><clipPath id="i"><path d="M 78.394531 244.695312 L -6.308594 85.980469 L 118.019531 19.628906 L 202.722656 178.34375 Z M 78.394531 244.695312"/></clipPath><clipPath id="j"><path d="M 116.289062 224.472656 L 31.050781 64.761719 L 121.128906 16.6875 L 206.367188 176.398438 Z M 116.289062 224.472656"/></clipPath><clipPath id="k"><path d="M 116.289062 224.472656 L 31.714844 66.007812 L 118.238281 19.832031 L 202.808594 178.296875 Z M 116.289062 224.472656"/></clipPath></defs><g clip-path="url(#a)"><g clip-path="url(#b)"><g clip-path="url(#c)"><path fill="#FAFAFF" d="M 71.664062 135.542969 C 58.855469 131.304688 45.003906 138.246094 40.722656 151.027344 C 36.453125 163.828125 43.355469 177.652344 56.164062 181.890625 C 68.953125 186.136719 82.816406 179.214844 87.105469 166.402344 C 91.386719 153.625 84.464844 139.808594 71.664062 135.542969"/></g></g></g><g clip-path="url(#d)"><g clip-path="url(#e)"><g clip-path="url(#f)"><path fill="#FAFAFF" d="M 111 175.269531 C 117.152344 174.1875 121.285156 168.328125 120.226562 162.152344 L 107.425781 88.753906 C 107.222656 87.53125 106.820312 86.394531 106.269531 85.363281 C 104.03125 81.171875 99.269531 78.699219 94.308594 79.570312 C 88.15625 80.648438 84.003906 86.523438 85.085938 92.683594 L 97.886719 166.085938 C 98.925781 172.269531 104.824219 176.359375 111 175.269531"/></g></g></g><g clip-path="url(#g)"><g clip-path="url(#h)"><g clip-path="url(#i)"><g clip-path="url(#j)"><g clip-path="url(#k)"><path fill="#FAFAFF" d="M 96.117188 50.675781 L 143.625 142.226562 L 122.5 142.179688 L 125.808594 161.179688 C 127.410156 170.394531 121.195312 179.21875 111.964844 180.839844 C 104.753906 182.109375 97.632812 178.695312 94.140625 172.34375 C 94.957031 184.128906 104.667969 193.476562 116.714844 193.507812 L 168.316406 193.625 C 187.933594 193.675781 196.574219 170.378906 190.914062 159.496094 C 188.761719 154.757812 126.632812 35.566406 126.332031 35 C 126.289062 34.921875 126.257812 34.863281 126.226562 34.804688 C 121.859375 26.617188 111.691406 23.476562 103.410156 27.769531 C 95.070312 32.097656 91.792969 42.335938 96.117188 50.675781"/></g></g></g></g></g></svg>