<svg xmlns="http://www.w3.org/2000/svg" width="224.88" viewBox="0 0 224.88 225" height="225" version="1.0"><defs><clipPath id="a"><path d="M 96 24.347656 L 129 24.347656 L 129 57 L 96 57 Z M 96 24.347656"/></clipPath><clipPath id="b"><path d="M 53 54 L 173 54 L 173 200.503906 L 53 200.503906 Z M 53 54"/></clipPath><clipPath id="c"><path d="M 22.488281 60 L 48 60 L 48 68 L 22.488281 68 Z M 22.488281 60"/></clipPath><clipPath id="d"><path d="M 177 60 L 202.390625 60 L 202.390625 68 L 177 68 Z M 177 60"/></clipPath></defs><g clip-path="url(#a)"><path fill="#FAFAFF" d="M 128.628906 40.523438 C 128.628906 41.054688 128.605469 41.582031 128.550781 42.109375 C 128.5 42.636719 128.421875 43.160156 128.320312 43.679688 C 128.214844 44.199219 128.085938 44.714844 127.933594 45.222656 C 127.78125 45.726562 127.601562 46.226562 127.398438 46.714844 C 127.195312 47.203125 126.96875 47.683594 126.71875 48.152344 C 126.46875 48.617188 126.195312 49.070312 125.902344 49.511719 C 125.605469 49.953125 125.292969 50.378906 124.957031 50.789062 C 124.617188 51.195312 124.261719 51.589844 123.886719 51.964844 C 123.511719 52.339844 123.121094 52.695312 122.710938 53.03125 C 122.300781 53.367188 121.875 53.679688 121.433594 53.976562 C 120.992188 54.269531 120.539062 54.542969 120.070312 54.792969 C 119.605469 55.042969 119.125 55.269531 118.636719 55.472656 C 118.144531 55.671875 117.648438 55.851562 117.140625 56.003906 C 116.632812 56.160156 116.117188 56.289062 115.597656 56.390625 C 115.078125 56.496094 114.554688 56.574219 114.027344 56.625 C 113.5 56.675781 112.96875 56.703125 112.441406 56.703125 C 111.910156 56.703125 111.378906 56.675781 110.851562 56.625 C 110.324219 56.574219 109.800781 56.496094 109.28125 56.390625 C 108.761719 56.289062 108.246094 56.160156 107.738281 56.003906 C 107.234375 55.851562 106.734375 55.671875 106.246094 55.472656 C 105.753906 55.269531 105.277344 55.042969 104.808594 54.792969 C 104.339844 54.542969 103.886719 54.269531 103.445312 53.976562 C 103.003906 53.679688 102.578125 53.367188 102.167969 53.03125 C 101.757812 52.695312 101.367188 52.339844 100.992188 51.964844 C 100.617188 51.589844 100.261719 51.195312 99.925781 50.789062 C 99.589844 50.378906 99.273438 49.953125 98.976562 49.511719 C 98.683594 49.070312 98.410156 48.617188 98.160156 48.152344 C 97.910156 47.683594 97.683594 47.203125 97.480469 46.714844 C 97.277344 46.226562 97.101562 45.726562 96.945312 45.222656 C 96.792969 44.714844 96.664062 44.199219 96.5625 43.679688 C 96.457031 43.160156 96.378906 42.636719 96.328125 42.109375 C 96.277344 41.582031 96.25 41.054688 96.25 40.523438 C 96.25 39.996094 96.277344 39.464844 96.328125 38.9375 C 96.378906 38.410156 96.457031 37.886719 96.5625 37.367188 C 96.664062 36.847656 96.792969 36.335938 96.945312 35.828125 C 97.101562 35.320312 97.277344 34.824219 97.480469 34.332031 C 97.683594 33.84375 97.910156 33.367188 98.160156 32.898438 C 98.410156 32.429688 98.683594 31.976562 98.976562 31.535156 C 99.273438 31.097656 99.589844 30.671875 99.925781 30.261719 C 100.261719 29.851562 100.617188 29.460938 100.992188 29.085938 C 101.367188 28.710938 101.757812 28.355469 102.167969 28.019531 C 102.578125 27.683594 103.003906 27.367188 103.445312 27.074219 C 103.886719 26.777344 104.339844 26.507812 104.808594 26.257812 C 105.277344 26.007812 105.753906 25.78125 106.246094 25.578125 C 106.734375 25.375 107.234375 25.199219 107.738281 25.042969 C 108.246094 24.890625 108.761719 24.761719 109.28125 24.65625 C 109.800781 24.554688 110.324219 24.476562 110.851562 24.425781 C 111.378906 24.371094 111.910156 24.347656 112.441406 24.347656 C 112.96875 24.347656 113.5 24.371094 114.027344 24.425781 C 114.554688 24.476562 115.078125 24.554688 115.597656 24.65625 C 116.117188 24.761719 116.632812 24.890625 117.140625 25.042969 C 117.648438 25.199219 118.144531 25.375 118.636719 25.578125 C 119.125 25.78125 119.605469 26.007812 120.070312 26.257812 C 120.539062 26.507812 120.992188 26.777344 121.433594 27.074219 C 121.875 27.367188 122.300781 27.683594 122.710938 28.019531 C 123.121094 28.355469 123.511719 28.710938 123.886719 29.085938 C 124.261719 29.460938 124.617188 29.851562 124.957031 30.261719 C 125.292969 30.671875 125.605469 31.097656 125.902344 31.535156 C 126.195312 31.976562 126.46875 32.429688 126.71875 32.898438 C 126.96875 33.367188 127.195312 33.84375 127.398438 34.332031 C 127.601562 34.824219 127.78125 35.320312 127.933594 35.828125 C 128.085938 36.335938 128.214844 36.847656 128.320312 37.367188 C 128.421875 37.886719 128.5 38.410156 128.550781 38.9375 C 128.605469 39.464844 128.628906 39.996094 128.628906 40.523438 Z M 128.628906 40.523438"/></g><g clip-path="url(#b)"><path fill="#FAFAFF" d="M 167.488281 54.546875 C 164.253906 53.464844 161.011719 55.265625 159.574219 58.140625 L 149.859375 77.195312 L 131.867188 63.890625 L 93.011719 63.890625 L 75.382812 77.554688 L 65.667969 58.5 C 64.226562 55.625 60.628906 53.828125 57.753906 54.90625 C 53.792969 55.984375 51.996094 60.65625 53.792969 64.25 L 68.1875 94.089844 C 69.265625 96.246094 71.785156 96.964844 73.941406 95.886719 L 94.808594 85.101562 L 94.808594 117.816406 L 87.613281 157.722656 C 87.253906 159.878906 87.613281 161.675781 88.695312 163.472656 L 106.683594 195.828125 C 108.480469 198.707031 111.359375 200.503906 114.597656 200.503906 C 116.039062 200.503906 117.480469 200.144531 118.917969 199.425781 C 123.234375 196.90625 124.675781 191.515625 122.515625 187.203125 L 119.769531 182.355469 L 105.605469 157.363281 L 106.457031 153.769531 L 112.441406 128.601562 L 122.15625 149.453125 L 114.414062 158.324219 L 123.242188 173.894531 L 138.703125 158.441406 C 141.222656 155.925781 141.941406 152.6875 140.867188 149.453125 L 130.429688 117.816406 L 130.429688 84.742188 L 151.296875 95.527344 C 153.460938 96.605469 155.972656 95.886719 157.058594 93.730469 L 171.449219 63.890625 C 173.246094 60.296875 171.445312 55.984375 167.488281 54.546875 Z M 167.488281 54.546875"/></g><path fill="#FAFAFF" d="M 53.792969 64.25 L 55.355469 67.488281 L 169.710938 67.488281 L 171.445312 63.890625 C 172.027344 62.722656 172.203125 61.492188 172.074219 60.296875 L 53.183594 60.296875 C 52.988281 61.613281 53.164062 62.992188 53.792969 64.25 Z M 53.792969 64.25"/><g clip-path="url(#c)"><path fill="#FAFAFF" d="M 47.359375 67.46875 C 46.234375 65.21875 45.835938 62.75 46.007812 60.296875 L 22.492188 60.296875 L 22.492188 67.488281 L 47.367188 67.488281 Z M 47.359375 67.46875"/></g><g clip-path="url(#d)"><path fill="#FAFAFF" d="M 179.25 60.296875 C 179.363281 62.621094 178.964844 64.941406 177.929688 67.011719 L 177.703125 67.488281 L 202.386719 67.488281 L 202.386719 60.296875 Z M 179.25 60.296875"/></g></svg>