<svg xmlns="http://www.w3.org/2000/svg" width="224.88" viewBox="0 0 224.88 225" height="225" version="1.0"><defs><clipPath id="a"><path d="M 23 58 L 202.390625 58 L 202.390625 167.40625 L 23 167.40625 Z M 23 58"/></clipPath></defs><g clip-path="url(#a)"><path fill="#FAFAFF" d="M 39.132812 58.082031 C 38.609375 58.082031 38.085938 58.105469 37.566406 58.160156 C 37.042969 58.210938 36.527344 58.285156 36.011719 58.390625 C 35.496094 58.492188 34.988281 58.621094 34.488281 58.773438 C 33.984375 58.925781 33.492188 59.101562 33.007812 59.304688 C 32.523438 59.503906 32.050781 59.730469 31.589844 59.976562 C 31.125 60.226562 30.675781 60.496094 30.242188 60.789062 C 29.804688 61.078125 29.386719 61.394531 28.980469 61.726562 C 28.574219 62.058594 28.1875 62.414062 27.816406 62.785156 C 27.445312 63.15625 27.09375 63.546875 26.761719 63.953125 C 26.429688 64.359375 26.117188 64.78125 25.824219 65.21875 C 25.535156 65.65625 25.265625 66.105469 25.019531 66.570312 C 24.769531 67.035156 24.546875 67.507812 24.347656 67.996094 C 24.144531 68.480469 23.96875 68.976562 23.816406 69.480469 C 23.664062 69.984375 23.539062 70.492188 23.4375 71.007812 C 23.332031 71.523438 23.257812 72.042969 23.207031 72.566406 C 23.152344 73.089844 23.128906 73.617188 23.128906 74.140625 C 23.128906 74.667969 23.152344 75.191406 23.207031 75.714844 C 23.257812 76.238281 23.332031 76.757812 23.4375 77.273438 C 23.539062 77.789062 23.664062 78.300781 23.816406 78.804688 C 23.96875 79.308594 24.144531 79.800781 24.347656 80.289062 C 24.546875 80.773438 24.769531 81.25 25.019531 81.710938 C 25.265625 82.175781 25.535156 82.628906 25.824219 83.066406 C 26.117188 83.5 26.429688 83.925781 26.761719 84.332031 C 27.09375 84.738281 27.445312 85.125 27.816406 85.5 C 28.1875 85.871094 28.574219 86.222656 28.980469 86.558594 C 29.386719 86.890625 29.804688 87.203125 30.242188 87.496094 C 30.675781 87.789062 31.125 88.058594 31.589844 88.304688 C 32.050781 88.554688 32.523438 88.777344 33.007812 88.980469 C 33.492188 89.179688 33.984375 89.359375 34.488281 89.511719 C 34.988281 89.664062 35.496094 89.792969 36.011719 89.894531 C 36.527344 89.996094 37.042969 90.074219 37.566406 90.125 C 38.085938 90.175781 38.609375 90.203125 39.132812 90.203125 C 39.65625 90.203125 40.179688 90.175781 40.703125 90.125 C 41.222656 90.074219 41.742188 89.996094 42.257812 89.894531 C 42.769531 89.792969 43.277344 89.664062 43.78125 89.511719 C 44.28125 89.359375 44.773438 89.179688 45.257812 88.980469 C 45.742188 88.777344 46.214844 88.554688 46.679688 88.304688 C 47.140625 88.058594 47.589844 87.789062 48.027344 87.496094 C 48.460938 87.203125 48.882812 86.890625 49.289062 86.558594 C 49.691406 86.222656 50.082031 85.871094 50.453125 85.5 C 50.824219 85.125 51.175781 84.738281 51.507812 84.332031 C 51.839844 83.925781 52.152344 83.5 52.441406 83.066406 C 52.734375 82.628906 53.003906 82.175781 53.25 81.710938 C 53.496094 81.25 53.71875 80.773438 53.921875 80.289062 C 54.121094 79.800781 54.296875 79.308594 54.449219 78.804688 C 54.601562 78.300781 54.730469 77.789062 54.832031 77.273438 C 54.933594 76.757812 55.011719 76.238281 55.0625 75.714844 C 55.113281 75.191406 55.140625 74.667969 55.140625 74.140625 C 55.140625 73.617188 55.113281 73.089844 55.0625 72.566406 C 55.011719 72.042969 54.933594 71.523438 54.832031 71.007812 C 54.730469 70.492188 54.601562 69.984375 54.449219 69.480469 C 54.296875 68.976562 54.121094 68.480469 53.921875 67.996094 C 53.71875 67.507812 53.496094 67.035156 53.25 66.570312 C 53.003906 66.105469 52.734375 65.65625 52.441406 65.21875 C 52.152344 64.78125 51.839844 64.359375 51.507812 63.953125 C 51.175781 63.546875 50.824219 63.15625 50.453125 62.785156 C 50.082031 62.414062 49.691406 62.058594 49.289062 61.726562 C 48.882812 61.394531 48.460938 61.078125 48.027344 60.789062 C 47.589844 60.496094 47.140625 60.226562 46.679688 59.976562 C 46.214844 59.730469 45.742188 59.503906 45.257812 59.304688 C 44.773438 59.101562 44.28125 58.925781 43.78125 58.773438 C 43.277344 58.621094 42.769531 58.492188 42.257812 58.390625 C 41.742188 58.285156 41.222656 58.210938 40.703125 58.160156 C 40.179688 58.105469 39.65625 58.082031 39.132812 58.082031 Z M 77.546875 77.355469 C 77.023438 77.355469 76.5 77.378906 75.980469 77.429688 C 75.457031 77.484375 74.9375 77.558594 74.425781 77.664062 C 73.910156 77.765625 73.402344 77.894531 72.902344 78.046875 C 72.398438 78.199219 71.90625 78.375 71.421875 78.578125 C 70.9375 78.777344 70.464844 79.003906 70.003906 79.25 C 69.539062 79.5 69.089844 79.769531 68.65625 80.0625 C 68.21875 80.351562 67.800781 80.664062 67.394531 81 C 66.988281 81.332031 66.601562 81.6875 66.230469 82.058594 C 65.859375 82.429688 65.507812 82.820312 65.175781 83.226562 C 64.84375 83.632812 64.53125 84.054688 64.238281 84.492188 C 63.949219 84.929688 63.679688 85.378906 63.433594 85.84375 C 63.183594 86.308594 62.960938 86.78125 62.761719 87.269531 C 62.558594 87.753906 62.382812 88.25 62.230469 88.753906 C 62.078125 89.253906 61.953125 89.765625 61.847656 90.28125 C 61.746094 90.796875 61.671875 91.316406 61.617188 91.839844 C 61.566406 92.363281 61.542969 92.886719 61.542969 93.414062 C 61.546875 95.351562 61.886719 97.222656 62.566406 99.035156 L 62.554688 99.046875 L 71.859375 126.011719 L 57.191406 143.304688 L 57.015625 143.480469 C 56.585938 143.890625 56.222656 144.355469 55.925781 144.871094 C 55.625 145.386719 55.402344 145.933594 55.253906 146.507812 C 55.109375 147.085938 55.042969 147.671875 55.058594 148.269531 C 55.070312 148.863281 55.167969 149.445312 55.34375 150.015625 C 55.519531 150.582031 55.769531 151.117188 56.09375 151.617188 C 56.417969 152.117188 56.804688 152.5625 57.253906 152.953125 C 57.703125 153.34375 58.195312 153.664062 58.730469 153.917969 C 59.269531 154.171875 59.832031 154.347656 60.417969 154.445312 L 29.53125 154.445312 C 29.105469 154.4375 28.6875 154.476562 28.269531 154.554688 C 27.851562 154.632812 27.445312 154.75 27.050781 154.90625 C 26.660156 155.066406 26.285156 155.261719 25.929688 155.496094 C 25.574219 155.730469 25.246094 155.996094 24.945312 156.292969 C 24.644531 156.59375 24.371094 156.917969 24.136719 157.273438 C 23.898438 157.625 23.695312 157.996094 23.535156 158.390625 C 23.371094 158.78125 23.246094 159.1875 23.164062 159.605469 C 23.078125 160.023438 23.039062 160.445312 23.039062 160.871094 C 23.039062 161.296875 23.078125 161.714844 23.164062 162.132812 C 23.246094 162.550781 23.371094 162.957031 23.535156 163.347656 C 23.695312 163.742188 23.898438 164.113281 24.136719 164.46875 C 24.371094 164.820312 24.644531 165.144531 24.945312 165.445312 C 25.246094 165.742188 25.574219 166.007812 25.929688 166.242188 C 26.285156 166.476562 26.660156 166.671875 27.050781 166.832031 C 27.445312 166.988281 27.851562 167.109375 28.269531 167.1875 C 28.6875 167.265625 29.105469 167.300781 29.53125 167.292969 L 195.988281 167.292969 C 196.414062 167.300781 196.835938 167.265625 197.25 167.1875 C 197.667969 167.109375 198.074219 166.988281 198.46875 166.832031 C 198.859375 166.671875 199.234375 166.476562 199.589844 166.242188 C 199.945312 166.007812 200.273438 165.742188 200.574219 165.445312 C 200.878906 165.144531 201.148438 164.820312 201.386719 164.46875 C 201.621094 164.113281 201.824219 163.742188 201.988281 163.347656 C 202.152344 162.957031 202.273438 162.550781 202.359375 162.132812 C 202.441406 161.714844 202.484375 161.296875 202.484375 160.871094 C 202.484375 160.445312 202.441406 160.023438 202.359375 159.605469 C 202.273438 159.1875 202.152344 158.78125 201.988281 158.390625 C 201.824219 157.996094 201.621094 157.625 201.386719 157.273438 C 201.148438 156.917969 200.878906 156.59375 200.574219 156.292969 C 200.273438 155.996094 199.945312 155.730469 199.589844 155.496094 C 199.234375 155.261719 198.859375 155.066406 198.46875 154.90625 C 198.074219 154.75 197.667969 154.632812 197.25 154.554688 C 196.835938 154.476562 196.414062 154.4375 195.988281 154.445312 C 196.664062 154.441406 197.320312 154.335938 197.960938 154.125 C 198.601562 153.914062 199.191406 153.609375 199.738281 153.210938 C 200.28125 152.8125 200.75 152.339844 201.148438 151.792969 C 201.542969 151.246094 201.84375 150.648438 202.054688 150.007812 C 202.261719 149.363281 202.367188 148.703125 202.367188 148.027344 C 202.367188 147.351562 202.265625 146.691406 202.058594 146.050781 C 201.851562 145.40625 201.550781 144.808594 201.160156 144.261719 C 200.765625 143.714844 200.296875 143.238281 199.753906 142.839844 L 199.792969 142.789062 L 144.546875 111.597656 C 144.546875 111.597656 142.03125 101.695312 132.792969 97.90625 C 124.167969 94.367188 83.3125 78.433594 83.3125 78.433594 L 83.300781 78.445312 C 81.449219 77.722656 79.53125 77.359375 77.546875 77.355469 Z M 87.175781 111.695312 L 127.378906 127.066406 L 191.402344 152.953125 L 193.25 153.832031 C 194.035156 154.203125 194.859375 154.410156 195.726562 154.445312 L 62.515625 154.445312 C 63.90625 154.210938 65.089844 153.582031 66.070312 152.5625 L 66.195312 152.4375 L 66.269531 152.488281 L 67.207031 151.421875 L 85.273438 133.289062 C 85.875 132.6875 86.339844 131.992188 86.664062 131.207031 C 86.988281 130.417969 87.152344 129.597656 87.152344 128.75 Z M 87.175781 111.695312"/></g></svg>