<svg xmlns="http://www.w3.org/2000/svg" width="224.88" viewBox="0 0 224.88 225" height="225" version="1.0"><defs><clipPath id="a"><path d="M 98 71 L 174.582031 71 L 174.582031 92 L 98 92 Z M 98 71"/></clipPath></defs><path fill="#FAFAFF" d="M 126.457031 43.675781 C 126.457031 44.351562 126.425781 45.023438 126.359375 45.699219 C 126.292969 46.371094 126.195312 47.039062 126.0625 47.703125 C 125.929688 48.367188 125.765625 49.019531 125.570312 49.667969 C 125.375 50.316406 125.148438 50.953125 124.886719 51.574219 C 124.628906 52.199219 124.339844 52.8125 124.023438 53.40625 C 123.703125 54.003906 123.359375 54.582031 122.984375 55.144531 C 122.605469 55.707031 122.207031 56.25 121.777344 56.773438 C 121.347656 57.296875 120.894531 57.796875 120.417969 58.273438 C 119.941406 58.753906 119.441406 59.207031 118.917969 59.636719 C 118.394531 60.0625 117.855469 60.464844 117.292969 60.84375 C 116.730469 61.21875 116.152344 61.566406 115.554688 61.882812 C 114.960938 62.203125 114.351562 62.492188 113.726562 62.75 C 113.101562 63.007812 112.46875 63.238281 111.820312 63.433594 C 111.175781 63.628906 110.519531 63.792969 109.859375 63.925781 C 109.195312 64.058594 108.527344 64.15625 107.855469 64.222656 C 107.183594 64.289062 106.507812 64.320312 105.832031 64.320312 C 105.160156 64.320312 104.484375 64.289062 103.8125 64.222656 C 103.140625 64.15625 102.472656 64.058594 101.808594 63.925781 C 101.148438 63.792969 100.492188 63.628906 99.847656 63.433594 C 99.199219 63.238281 98.566406 63.007812 97.941406 62.75 C 97.316406 62.492188 96.707031 62.203125 96.113281 61.882812 C 95.515625 61.566406 94.9375 61.21875 94.375 60.84375 C 93.8125 60.464844 93.273438 60.0625 92.75 59.636719 C 92.226562 59.207031 91.726562 58.753906 91.25 58.273438 C 90.773438 57.796875 90.320312 57.296875 89.890625 56.773438 C 89.460938 56.25 89.0625 55.707031 88.683594 55.144531 C 88.308594 54.582031 87.964844 54.003906 87.644531 53.40625 C 87.328125 52.8125 87.039062 52.199219 86.78125 51.574219 C 86.519531 50.953125 86.292969 50.316406 86.097656 49.667969 C 85.902344 49.019531 85.738281 48.367188 85.605469 47.703125 C 85.472656 47.039062 85.375 46.371094 85.308594 45.699219 C 85.242188 45.023438 85.210938 44.351562 85.210938 43.675781 C 85.210938 43 85.242188 42.324219 85.308594 41.652344 C 85.375 40.976562 85.472656 40.308594 85.605469 39.644531 C 85.738281 38.984375 85.902344 38.328125 86.097656 37.679688 C 86.292969 37.035156 86.519531 36.398438 86.78125 35.773438 C 87.039062 35.148438 87.328125 34.539062 87.644531 33.941406 C 87.964844 33.34375 88.308594 32.765625 88.683594 32.203125 C 89.0625 31.640625 89.460938 31.097656 89.890625 30.574219 C 90.320312 30.054688 90.773438 29.550781 91.25 29.074219 C 91.726562 28.597656 92.226562 28.144531 92.75 27.714844 C 93.273438 27.285156 93.8125 26.882812 94.375 26.507812 C 94.9375 26.132812 95.515625 25.785156 96.113281 25.464844 C 96.707031 25.144531 97.316406 24.855469 97.941406 24.597656 C 98.566406 24.339844 99.199219 24.113281 99.847656 23.914062 C 100.492188 23.71875 101.148438 23.554688 101.808594 23.421875 C 102.472656 23.292969 103.140625 23.191406 103.8125 23.125 C 104.484375 23.058594 105.160156 23.027344 105.832031 23.027344 C 106.507812 23.027344 107.183594 23.058594 107.855469 23.125 C 108.527344 23.191406 109.195312 23.292969 109.859375 23.421875 C 110.519531 23.554688 111.175781 23.71875 111.820312 23.914062 C 112.46875 24.113281 113.101562 24.339844 113.726562 24.597656 C 114.351562 24.855469 114.960938 25.144531 115.554688 25.464844 C 116.152344 25.785156 116.730469 26.132812 117.292969 26.507812 C 117.855469 26.882812 118.394531 27.285156 118.917969 27.714844 C 119.441406 28.144531 119.941406 28.597656 120.417969 29.074219 C 120.894531 29.550781 121.347656 30.054688 121.777344 30.574219 C 122.207031 31.097656 122.605469 31.640625 122.984375 32.203125 C 123.359375 32.765625 123.703125 33.34375 124.023438 33.941406 C 124.339844 34.539062 124.628906 35.148438 124.886719 35.773438 C 125.148438 36.398438 125.375 37.035156 125.570312 37.679688 C 125.765625 38.328125 125.929688 38.984375 126.0625 39.644531 C 126.195312 40.308594 126.292969 40.976562 126.359375 41.652344 C 126.425781 42.324219 126.457031 43 126.457031 43.675781 Z M 126.457031 43.675781"/><g clip-path="url(#a)"><path fill="#FAFAFF" d="M 164.269531 91.851562 L 98.960938 91.851562 L 98.960938 71.203125 L 164.269531 71.203125 C 169.769531 71.203125 174.582031 76.023438 174.582031 81.527344 C 174.582031 87.035156 169.769531 91.851562 164.269531 91.851562 Z M 164.269531 91.851562"/></g><path fill="#FAFAFF" d="M 105.832031 153.796875 L 78.335938 153.796875 L 85.210938 126.265625 L 119.582031 126.265625 Z M 105.832031 153.796875"/><path fill="#FAFAFF" d="M 131.269531 145.535156 L 109.269531 194.402344 C 107.207031 198.53125 103.085938 201.972656 97.585938 201.972656 C 88.648438 201.972656 82.460938 192.335938 85.898438 184.078125 L 112.707031 126.265625 L 118.894531 126.265625 C 128.519531 126.265625 135.394531 136.589844 131.269531 145.535156 Z M 131.269531 145.535156"/><path fill="#FAFAFF" d="M 85.210938 153.796875 L 74.898438 153.796875 C 60.460938 153.796875 50.148438 138.652344 55.648438 124.886719 L 74.898438 79.464844 C 76.960938 74.644531 81.773438 71.203125 87.273438 71.203125 L 119.582031 71.203125 Z M 85.210938 153.796875"/></svg>