<svg xmlns="http://www.w3.org/2000/svg" xmlns:xlink="http://www.w3.org/1999/xlink" width="500" zoomAndPan="magnify" viewBox="0 0 375 374.999991" height="500" preserveAspectRatio="xMidYMid meet" version="1.0"><defs><clipPath id="id1"><path d="M 160 40.5 L 215 40.5 L 215 95 L 160 95 Z M 160 40.5 " clip-rule="nonzero"/></clipPath><clipPath id="id2"><path d="M 88 90 L 288 90 L 288 334.5 L 88 334.5 Z M 88 90 " clip-rule="nonzero"/></clipPath><clipPath id="id3"><path d="M 37.5 100 L 79 100 L 79 113 L 37.5 113 Z M 37.5 100 " clip-rule="nonzero"/></clipPath><clipPath id="id4"><path d="M 296 100 L 337.5 100 L 337.5 113 L 296 113 Z M 296 100 " clip-rule="nonzero"/></clipPath></defs><g clip-path="url(#id1)"><path fill="rgb(49.409485%, 78.039551%, 41.178894%)" d="M 214.5 67.5 C 214.5 68.382812 214.457031 69.265625 214.371094 70.144531 C 214.285156 71.027344 214.152344 71.898438 213.980469 72.765625 C 213.808594 73.632812 213.59375 74.492188 213.335938 75.335938 C 213.082031 76.183594 212.78125 77.015625 212.445312 77.832031 C 212.105469 78.648438 211.730469 79.449219 211.3125 80.226562 C 210.894531 81.007812 210.441406 81.765625 209.949219 82.5 C 209.457031 83.234375 208.933594 83.945312 208.371094 84.628906 C 207.808594 85.3125 207.21875 85.964844 206.59375 86.59375 C 205.964844 87.21875 205.3125 87.808594 204.628906 88.371094 C 203.945312 88.933594 203.234375 89.457031 202.5 89.949219 C 201.765625 90.441406 201.007812 90.894531 200.226562 91.3125 C 199.449219 91.730469 198.648438 92.105469 197.832031 92.445312 C 197.015625 92.78125 196.183594 93.082031 195.335938 93.335938 C 194.492188 93.59375 193.632812 93.808594 192.765625 93.980469 C 191.898438 94.152344 191.027344 94.285156 190.144531 94.371094 C 189.265625 94.457031 188.382812 94.5 187.5 94.5 C 186.617188 94.5 185.734375 94.457031 184.855469 94.371094 C 183.972656 94.285156 183.101562 94.152344 182.234375 93.980469 C 181.367188 93.808594 180.507812 93.59375 179.664062 93.335938 C 178.816406 93.082031 177.984375 92.78125 177.167969 92.445312 C 176.351562 92.105469 175.550781 91.730469 174.773438 91.3125 C 173.992188 90.894531 173.234375 90.441406 172.5 89.949219 C 171.765625 89.457031 171.054688 88.933594 170.371094 88.371094 C 169.6875 87.808594 169.035156 87.21875 168.40625 86.59375 C 167.78125 85.964844 167.191406 85.3125 166.628906 84.628906 C 166.066406 83.945312 165.542969 83.234375 165.050781 82.5 C 164.558594 81.765625 164.105469 81.007812 163.6875 80.226562 C 163.269531 79.449219 162.894531 78.648438 162.554688 77.832031 C 162.21875 77.015625 161.917969 76.183594 161.664062 75.335938 C 161.40625 74.492188 161.191406 73.632812 161.019531 72.765625 C 160.847656 71.898438 160.714844 71.027344 160.628906 70.144531 C 160.542969 69.265625 160.5 68.382812 160.5 67.5 C 160.5 66.617188 160.542969 65.734375 160.628906 64.855469 C 160.714844 63.972656 160.847656 63.101562 161.019531 62.234375 C 161.191406 61.367188 161.40625 60.507812 161.664062 59.664062 C 161.917969 58.816406 162.21875 57.984375 162.554688 57.167969 C 162.894531 56.351562 163.269531 55.550781 163.6875 54.773438 C 164.105469 53.992188 164.558594 53.234375 165.050781 52.5 C 165.542969 51.765625 166.066406 51.054688 166.628906 50.371094 C 167.191406 49.6875 167.78125 49.035156 168.40625 48.40625 C 169.035156 47.78125 169.6875 47.191406 170.371094 46.628906 C 171.054688 46.066406 171.765625 45.542969 172.5 45.050781 C 173.234375 44.558594 173.992188 44.105469 174.773438 43.6875 C 175.550781 43.269531 176.351562 42.894531 177.167969 42.554688 C 177.984375 42.21875 178.816406 41.917969 179.664062 41.664062 C 180.507812 41.40625 181.367188 41.191406 182.234375 41.019531 C 183.101562 40.847656 183.972656 40.714844 184.855469 40.628906 C 185.734375 40.542969 186.617188 40.5 187.5 40.5 C 188.382812 40.5 189.265625 40.542969 190.144531 40.628906 C 191.027344 40.714844 191.898438 40.847656 192.765625 41.019531 C 193.632812 41.191406 194.492188 41.40625 195.335938 41.664062 C 196.183594 41.917969 197.015625 42.21875 197.832031 42.554688 C 198.648438 42.894531 199.449219 43.269531 200.226562 43.6875 C 201.007812 44.105469 201.765625 44.558594 202.5 45.050781 C 203.234375 45.542969 203.945312 46.066406 204.628906 46.628906 C 205.3125 47.191406 205.964844 47.78125 206.59375 48.40625 C 207.21875 49.035156 207.808594 49.6875 208.371094 50.371094 C 208.933594 51.054688 209.457031 51.765625 209.949219 52.5 C 210.441406 53.234375 210.894531 53.992188 211.3125 54.773438 C 211.730469 55.550781 212.105469 56.351562 212.445312 57.167969 C 212.78125 57.984375 213.082031 58.816406 213.335938 59.664062 C 213.59375 60.507812 213.808594 61.367188 213.980469 62.234375 C 214.152344 63.101562 214.285156 63.972656 214.371094 64.855469 C 214.457031 65.734375 214.5 66.617188 214.5 67.5 Z M 214.5 67.5 " fill-opacity="1" fill-rule="nonzero"/></g><g clip-path="url(#id2)"><path fill="rgb(49.409485%, 78.039551%, 41.178894%)" d="M 279.300781 90.898438 C 273.90625 89.101562 268.5 92.101562 266.101562 96.898438 L 249.898438 128.699219 L 219.898438 106.5 L 155.101562 106.5 L 125.699219 129.300781 L 109.5 97.5 C 107.101562 92.699219 101.101562 89.699219 96.300781 91.5 C 89.699219 93.300781 86.699219 101.101562 89.699219 107.101562 L 113.699219 156.898438 C 115.5 160.5 119.699219 161.699219 123.300781 159.898438 L 158.101562 141.898438 L 158.101562 196.5 L 146.101562 263.101562 C 145.5 266.699219 146.101562 269.699219 147.898438 272.699219 L 177.898438 326.699219 C 180.898438 331.5 185.699219 334.5 191.101562 334.5 C 193.5 334.5 195.90625 333.898438 198.300781 332.699219 C 205.5 328.5 207.90625 319.5 204.300781 312.300781 L 199.722656 304.210938 L 176.101562 262.5 L 177.523438 256.5 L 187.5 214.5 L 203.699219 249.300781 L 190.792969 264.101562 L 205.511719 290.089844 L 231.300781 264.300781 C 235.5 260.101562 236.699219 254.699219 234.90625 249.300781 L 217.5 196.5 L 217.5 141.300781 L 252.300781 159.300781 C 255.90625 161.101562 260.101562 159.898438 261.90625 156.300781 L 285.90625 106.5 C 288.898438 100.5 285.898438 93.300781 279.300781 90.898438 Z M 279.300781 90.898438 " fill-opacity="1" fill-rule="nonzero"/></g><path fill="rgb(49.409485%, 78.039551%, 41.178894%)" d="M 89.699219 107.101562 L 92.304688 112.5 L 283.007812 112.5 L 285.898438 106.5 C 286.871094 104.550781 287.164062 102.492188 286.949219 100.5 L 88.679688 100.5 C 88.355469 102.695312 88.648438 105 89.699219 107.101562 Z M 89.699219 107.101562 " fill-opacity="1" fill-rule="nonzero"/><g clip-path="url(#id3)"><path fill="rgb(49.409485%, 78.039551%, 41.178894%)" d="M 78.964844 112.46875 C 77.09375 108.714844 76.429688 104.59375 76.714844 100.5 L 37.5 100.5 L 37.5 112.5 L 78.984375 112.5 Z M 78.964844 112.46875 " fill-opacity="1" fill-rule="nonzero"/></g><g clip-path="url(#id4)"><path fill="rgb(49.409485%, 78.039551%, 41.178894%)" d="M 298.914062 100.5 C 299.105469 104.375 298.441406 108.253906 296.710938 111.707031 L 296.335938 112.5 L 337.5 112.5 L 337.5 100.5 Z M 298.914062 100.5 " fill-opacity="1" fill-rule="nonzero"/></g></svg>